<?xml version="1.0" standalone="no"?>
<!DOCTYPE svg PUBLIC "-//W3C//DTD SVG 20010904//EN"
 "http://www.w3.org/TR/2001/REC-SVG-20010904/DTD/svg10.dtd">
<svg version="1.0" xmlns="http://www.w3.org/2000/svg"
 width="512.000000pt" height="512.000000pt" viewBox="0 0 512.000000 512.000000"
 preserveAspectRatio="xMidYMid meet">
<metadata>
Created by potrace 1.14, written by Peter Selinger 2001-2017
</metadata>
<g transform="translate(0.000000,512.000000) scale(0.100000,-0.100000)"
fill="#000000" stroke="none">
<path d="M2506 4854 c-22 -16 -21 -12 -36 -149 -19 -167 -39 -306 -48 -322 -8
-13 -10 -13 -15 1 -4 11 -3 15 4 11 13 -8 1 44 -15 64 -8 11 -8 13 2 7 7 -4
12 -2 12 8 0 8 -6 17 -12 19 -9 4 -9 6 1 6 11 1 10 5 -5 17 -19 15 -19 16 1
10 17 -5 16 -3 -5 15 l-25 22 25 -7 c24 -6 24 -6 5 6 -12 7 -20 20 -20 28 1 8
-4 22 -9 30 -10 13 -9 13 8 0 18 -14 18 -13 11 9 -9 30 -16 70 -17 99 0 12 -4
22 -8 22 -4 0 -10 13 -13 29 -14 66 -101 95 -157 51 l-25 -19 -2 -233 c0 -128
-2 -255 -3 -283 -1 -27 1 -102 5 -165 4 -63 4 -112 0 -108 -4 3 -21 1 -38 -7
-18 -7 -37 -11 -43 -8 -6 2 -22 -7 -36 -20 -23 -22 -28 -23 -41 -9 -13 12 -20
13 -45 1 -17 -7 -29 -16 -27 -19 2 -3 -17 -5 -41 -5 -29 -1 -54 -8 -73 -23
-22 -16 -38 -20 -61 -16 -24 5 -36 2 -56 -17 -13 -12 -38 -23 -56 -24 -17 -1
-36 -9 -43 -19 -7 -9 -24 -19 -37 -21 -13 -3 -49 -18 -79 -35 -30 -16 -62 -30
-72 -30 -10 0 -21 -10 -26 -23 -6 -16 -18 -23 -41 -25 -34 -3 -125 -55 -134
-77 -2 -7 -18 -15 -36 -18 -17 -4 -29 -11 -25 -17 3 -5 1 -10 -5 -10 -14 0
-140 -99 -140 -111 0 -5 -11 -11 -24 -15 -13 -3 -32 -21 -42 -40 -10 -19 -26
-34 -36 -34 -10 0 -20 -10 -24 -24 -4 -16 -15 -26 -34 -30 -16 -3 -37 -17 -46
-31 -9 -14 -30 -40 -46 -57 -15 -16 -28 -33 -28 -37 0 -4 -11 -13 -25 -19 -14
-6 -25 -15 -24 -19 4 -25 -3 -43 -16 -43 -8 0 -15 -4 -15 -9 0 -5 -16 -26 -35
-47 -19 -20 -35 -38 -35 -40 0 -2 -11 -27 -25 -56 -14 -28 -23 -54 -20 -56 3
-3 -2 -10 -9 -16 -20 -15 -56 -83 -56 -104 0 -10 -7 -28 -16 -41 -13 -17 -14
-28 -6 -45 9 -20 6 -27 -19 -49 -17 -14 -30 -36 -30 -51 -2 -33 -3 -39 -10
-51 -9 -14 -17 -60 -24 -140 -4 -38 -10 -90 -15 -115 -5 -25 -5 -47 -2 -50 10
-7 12 -21 18 -118 5 -89 5 -96 3 -134 -2 -35 11 -119 21 -139 6 -10 7 -25 4
-33 -3 -9 -3 -24 1 -33 13 -29 14 -43 4 -43 -15 0 -10 -20 9 -45 13 -16 18
-37 16 -69 -2 -33 3 -52 17 -70 11 -14 26 -44 34 -68 25 -71 52 -123 81 -158
16 -18 30 -42 31 -53 2 -11 7 -25 12 -31 5 -6 18 -37 29 -68 11 -31 28 -66 39
-77 10 -10 29 -38 43 -60 14 -22 35 -45 48 -52 12 -7 25 -23 28 -35 3 -12 25
-35 47 -50 23 -16 56 -42 74 -59 18 -16 36 -30 40 -31 33 -5 74 -18 79 -25 3
-5 10 -7 15 -4 5 4 9 0 9 -7 0 -9 3 -9 10 2 5 8 10 12 10 8 0 -12 63 14 95 39
61 47 110 75 118 66 4 -3 9 2 13 11 3 9 10 13 15 10 5 -3 9 0 9 5 0 6 3 10 8
9 7 -3 82 49 93 65 3 5 10 9 15 8 5 0 21 11 36 25 15 13 33 24 39 24 5 0 7 5
3 11 -10 17 37 0 55 -20 9 -10 12 -11 6 -2 -7 10 -7 13 1 8 19 -11 65 -16 59
-6 -4 5 -10 7 -15 4 -5 -3 -12 0 -16 6 -4 8 3 9 26 4 23 -5 30 -4 26 4 -5 7 2
11 16 12 22 0 22 1 3 9 -11 5 -15 9 -9 9 6 1 19 21 30 46 20 51 34 59 29 18
-2 -16 -4 -32 -4 -36 -1 -5 -7 -5 -13 -1 -8 5 -8 1 1 -10 13 -15 13 -19 0 -27
-11 -7 -9 -9 8 -9 17 0 21 5 18 20 -2 11 0 20 5 20 4 0 6 10 4 23 -4 20 -4 20
5 2 5 -12 5 -27 -1 -37 -5 -10 -5 -18 -1 -18 4 0 2 -5 -5 -12 -23 -23 -12 -28
13 -6 13 11 29 36 36 55 6 18 14 31 19 28 5 -3 11 -1 15 5 3 5 2 10 -3 10 -6
0 -12 7 -15 14 -4 11 -1 13 10 9 11 -4 14 -2 9 5 -5 8 -2 10 8 6 10 -4 20 3
27 20 16 35 36 33 72 -6 82 -90 100 -107 108 -102 5 3 9 1 9 -4 0 -5 20 -17
45 -27 29 -13 41 -22 32 -27 -6 -4 -9 -8 -5 -8 4 0 0 -17 -9 -37 -15 -38 -42
-65 -55 -57 -5 3 -8 -1 -8 -10 0 -14 23 -16 36 -3 17 16 22 4 17 -35 -2 -24
-4 -55 -4 -71 1 -28 28 -105 42 -121 4 -4 3 -22 -2 -40 -6 -20 -5 -40 2 -58 8
-19 8 -32 0 -46 -13 -24 -15 -82 -3 -82 4 0 12 -10 17 -23 6 -12 15 -21 21
-20 5 1 11 -9 12 -21 2 -27 -34 -70 -50 -60 -8 5 -9 0 -4 -17 4 -13 10 -34 13
-46 4 -19 10 -22 31 -16 20 5 23 3 16 -8 -14 -23 -17 -40 -21 -127 -3 -57 -1
-82 7 -82 6 0 9 -4 6 -9 -4 -5 14 -9 40 -9 37 0 44 2 39 16 -26 69 -27 178 0
198 8 6 11 15 7 19 -4 5 -1 5 6 1 6 -4 12 -2 12 3 0 6 5 11 11 11 5 0 7 -4 4
-10 -3 -5 0 -7 8 -4 8 3 18 1 22 -5 6 -11 -6 -15 -35 -12 -13 2 -13 1 0 -8 8
-5 18 -7 22 -5 14 9 9 -14 -7 -29 -8 -8 -11 -17 -8 -21 4 -3 -1 -6 -9 -6 -9 0
-19 -7 -22 -16 -3 -8 -10 -12 -16 -9 -5 3 -10 -1 -10 -9 0 -22 26 -20 60 4 15
11 31 16 35 12 5 -4 5 -1 1 5 -4 7 -2 21 3 31 14 26 20 91 10 98 -4 2 -6 11
-2 19 3 8 1 15 -3 15 -5 0 -8 15 -8 32 1 18 -3 41 -8 52 -7 13 -7 16 1 12 8
-5 8 0 1 19 -13 34 -13 58 0 50 6 -3 10 -1 10 4 0 6 -6 11 -13 11 -8 0 -13 9
-12 22 1 13 -3 29 -9 37 -9 12 -8 13 4 6 13 -7 13 -6 2 7 -7 9 -15 29 -18 44
-3 16 -9 33 -15 40 -5 6 -6 14 -2 17 3 4 2 7 -4 7 -17 0 -34 78 -32 145 1 36
-1 68 -4 71 -11 11 13 44 31 44 14 0 13 3 -5 18 -34 26 -24 57 18 58 19 0 39
-2 44 -5 13 -8 108 -8 115 0 11 12 148 45 180 44 19 -2 48 -3 63 -4 41 -2 69
-39 94 -122 16 -55 21 -94 19 -149 -3 -79 -8 -99 -37 -140 -13 -19 -16 -41
-14 -85 4 -68 8 -95 18 -112 9 -14 -12 -75 -31 -90 -20 -16 -52 -65 -52 -79 0
-7 7 -14 15 -18 19 -7 47 3 39 15 -3 5 0 8 7 7 16 -4 37 -94 38 -160 1 -27 6
-48 11 -48 6 0 10 -9 10 -19 0 -11 5 -23 10 -26 6 -3 10 -2 10 3 0 5 18 15 40
22 22 7 45 19 51 27 9 10 15 10 25 2 8 -6 11 -15 8 -20 -3 -5 -1 -9 4 -9 6 0
10 -6 9 -12 -1 -43 4 -57 18 -51 9 3 14 8 11 11 -3 2 -1 14 5 24 8 14 8 23 0
31 -15 15 -14 30 2 21 9 -6 9 -4 -1 8 -10 13 -10 17 0 21 8 4 9 8 3 14 -19 15
-35 52 -29 67 3 8 -1 29 -9 46 -10 19 -11 28 -4 23 7 -4 6 0 -2 10 -7 9 -10
17 -6 17 4 0 3 6 -3 13 -5 6 -9 27 -7 45 1 20 -3 36 -11 39 -7 2 -11 13 -9 24
2 11 0 17 -6 14 -9 -6 -11 5 -12 53 -1 12 -5 22 -9 22 -5 0 -5 7 0 17 6 9 6
29 2 45 -5 15 -5 28 0 28 5 0 8 9 7 20 -1 11 -5 20 -10 20 -5 0 -5 6 1 12 6 7
11 16 11 21 1 4 1 8 2 10 0 1 2 11 4 22 1 11 6 34 10 50 16 68 7 192 -16 206
-12 7 -12 9 0 9 11 0 11 3 1 15 -9 11 -9 15 -1 15 7 0 9 5 5 11 -3 6 0 15 7
20 10 6 11 9 2 9 -16 0 -17 46 -1 56 7 5 9 2 4 -7 -4 -8 2 -3 13 10 12 13 32
23 46 23 14 0 22 4 19 9 -5 8 11 13 19 7 2 -2 11 3 20 11 14 11 20 11 35 0 14
-11 15 -11 5 1 -18 19 -16 31 2 23 10 -3 15 0 13 8 -2 8 3 13 10 12 6 -2 12 1
12 7 0 5 6 7 14 4 7 -3 21 3 31 13 20 19 82 32 70 14 -3 -6 0 -9 8 -6 16 7 80
-52 72 -65 -4 -6 1 -13 10 -16 10 -4 13 -13 10 -25 -8 -23 5 -24 31 -3 10 8
14 13 7 9 -7 -3 -21 3 -33 15 -11 11 -16 20 -11 20 6 0 13 -5 16 -10 3 -5 14
-10 23 -10 10 0 48 -16 85 -36 36 -19 76 -37 88 -39 12 -3 31 -12 42 -22 11
-10 17 -12 13 -6 -5 9 -2 11 8 7 9 -3 16 -10 16 -15 0 -5 9 -9 20 -9 10 0 23
-6 27 -14 10 -17 93 -69 93 -59 0 5 5 0 11 -9 5 -10 15 -18 20 -18 6 0 17 -6
24 -12 31 -28 43 -37 76 -53 19 -10 36 -21 39 -25 3 -5 14 -10 25 -12 11 -1
23 -7 26 -11 12 -17 64 -11 87 11 8 7 17 10 22 7 4 -3 21 2 36 10 16 8 25 15
20 15 -5 0 -1 9 9 20 10 11 22 17 26 14 5 -3 9 2 9 11 0 9 5 13 10 10 6 -3 10
2 10 12 0 21 36 47 52 37 7 -4 8 -3 4 4 -4 7 -2 12 4 12 6 0 9 4 5 9 -3 5 4
12 15 16 11 4 18 11 15 16 -4 5 1 9 9 9 9 0 15 3 15 8 -4 24 3 43 19 49 22 8
102 94 102 110 0 6 6 18 13 25 7 7 13 25 13 41 0 15 4 28 9 30 15 4 52 41 48
49 -2 4 1 9 6 13 6 3 8 12 4 20 -3 10 1 15 12 15 14 0 15 3 5 15 -12 15 -11
16 10 19 6 0 10 6 11 11 0 6 4 15 9 20 4 6 6 18 5 28 -2 9 1 17 6 17 6 0 7 5
4 10 -4 6 -1 18 7 27 7 9 14 26 15 37 3 31 13 78 23 101 20 50 30 83 35 120 9
68 13 82 24 102 5 11 7 23 4 27 -3 3 -2 6 4 6 13 0 12 32 -2 42 -6 5 -6 8 1 8
6 0 10 15 9 36 -1 19 1 37 4 39 3 1 6 25 5 52 -1 26 4 51 10 55 7 5 6 8 -4 8
-13 0 -13 1 0 10 12 8 12 10 1 10 -11 0 -11 3 -1 15 7 8 9 15 4 15 -5 0 -9 21
-10 48 -2 64 -10 131 -18 139 -3 3 -6 15 -6 25 0 10 -4 18 -8 18 -5 0 -8 30
-9 68 0 73 -15 140 -38 176 -8 12 -12 25 -9 28 7 8 -36 109 -55 128 -9 8 -18
22 -20 30 -16 57 -30 87 -54 113 -37 40 -87 113 -87 126 0 6 -6 12 -12 12 -7
1 -17 2 -23 4 -5 1 -14 3 -19 3 -5 1 -3 9 4 17 9 10 9 15 1 15 -6 0 -11 6 -11
14 0 8 -16 29 -36 48 -19 18 -42 47 -50 63 -8 17 -29 39 -47 50 -37 21 -130
100 -193 163 -23 23 -47 42 -53 42 -6 0 -26 14 -45 30 -25 22 -45 31 -77 33
-24 1 -43 5 -41 10 6 18 -84 77 -118 77 -10 0 -21 4 -25 9 -3 5 -22 15 -43 22
-20 6 -44 17 -52 24 -8 7 -33 18 -55 25 -22 7 -47 18 -55 25 -23 19 -110 55
-134 55 -11 0 -30 7 -40 15 -11 8 -36 15 -55 15 -20 1 -47 7 -60 14 -13 7 -32
11 -43 8 -10 -2 -25 1 -33 8 -7 6 -29 14 -47 16 -18 3 -37 11 -42 19 -8 11
-14 10 -34 -3 -23 -15 -25 -15 -37 1 -8 11 -35 21 -66 26 -29 5 -55 14 -57 20
-2 6 -9 8 -14 5 -7 -4 -8 -2 -4 5 6 9 11 9 21 1 10 -9 13 -7 10 7 -1 10 2 23
7 30 11 13 -17 12 -29 -2 -4 -4 -2 -5 5 -1 6 4 12 5 12 2 0 -3 -10 -11 -22
-17 -22 -12 -22 -12 -6 13 13 20 14 28 5 38 -7 7 -7 10 -2 8 6 -3 15 0 22 7
10 11 10 14 0 18 -8 3 -6 11 7 26 15 17 16 20 4 16 -9 -4 -19 -1 -23 5 -3 6
-3 10 2 9 4 -1 15 -1 23 0 13 1 13 2 0 11 -10 6 -11 10 -2 10 6 0 12 5 12 11
0 5 -6 7 -12 3 -10 -5 -10 -4 -1 6 8 8 9 20 3 36 -7 17 -6 24 3 24 8 0 8 3 -2
9 -11 7 -11 9 0 13 12 4 12 8 1 20 -9 12 -10 18 -2 23 8 5 6 13 -6 26 -9 10
-14 19 -9 19 4 0 2 7 -5 16 -11 12 -11 15 1 12 10 -2 13 5 12 25 -1 19 2 26
10 21 7 -4 2 3 -10 15 -26 24 -31 40 -8 21 12 -10 15 -10 15 4 0 9 -6 16 -12
16 -9 0 -8 4 2 10 13 8 13 13 2 31 -8 11 -9 18 -4 15 6 -3 12 1 16 9 3 8 1 15
-5 15 -6 0 -6 7 1 19 7 14 6 21 -3 24 -9 4 -9 6 1 6 7 1 10 6 6 12 -3 6 -6 32
-6 57 1 25 -2 51 -7 56 -5 6 -11 24 -15 40 -6 23 -11 27 -31 24 -14 -3 -26 0
-29 8 -13 33 -86 -25 -86 -68 0 -15 -4 -28 -8 -28 -10 0 -37 -95 -36 -127 0
-13 -4 -23 -8 -23 -4 0 -9 30 -9 68 -1 37 -2 72 -4 77 -1 6 -3 22 -3 38 -2 30
-37 71 -52 62 -6 -4 -10 0 -10 7 0 10 -2 10 -9 -1 -5 -8 -10 -9 -12 -3 -3 7
-11 5 -23 -4z m82 -2017 c7 -5 12 -3 13 5 0 7 4 4 9 -7 5 -11 9 -14 9 -8 1 9
8 10 26 3 17 -7 25 -6 25 1 0 8 4 8 13 0 8 -6 17 -8 20 -4 4 3 7 2 7 -4 0 -6
7 -14 16 -17 13 -5 14 -3 6 7 -8 10 -6 13 8 13 10 0 16 -4 14 -8 -3 -4 2 -8
10 -8 9 0 16 -5 16 -11 0 -8 5 -7 16 1 12 11 15 11 12 -1 -2 -8 3 -13 10 -12
6 2 12 -2 12 -7 0 -5 6 -9 13 -7 6 1 11 -4 9 -12 -3 -12 -1 -12 13 -1 14 12
18 12 25 0 4 -7 17 -14 28 -15 11 0 27 -9 37 -18 9 -10 21 -15 26 -12 5 4 9 1
9 -5 0 -6 5 -8 10 -5 6 4 17 1 25 -5 8 -7 15 -9 15 -4 0 4 7 -1 16 -12 8 -10
12 -12 8 -4 -5 9 2 7 17 -6 13 -11 43 -33 67 -49 88 -58 174 -155 225 -252 45
-86 58 -142 62 -261 2 -51 6 -96 9 -99 3 -4 2 -11 -3 -17 -5 -6 -11 -38 -14
-71 -3 -33 -8 -69 -11 -80 -14 -49 -56 -166 -67 -187 -28 -54 -151 -217 -195
-260 -47 -46 -160 -119 -206 -134 -12 -3 -28 -13 -36 -20 -7 -8 -22 -14 -32
-14 -10 0 -22 -4 -25 -10 -10 -16 -50 -12 -76 8 -36 27 -79 44 -122 48 -41 4
-68 -6 -104 -39 -20 -17 -30 -19 -90 -12 -85 10 -118 9 -140 0 -10 -5 -28 -10
-41 -12 -12 -2 -32 -7 -44 -12 -26 -10 -89 11 -133 44 -17 14 -35 25 -38 25
-4 0 -29 22 -57 50 -28 28 -55 50 -61 50 -17 0 -127 107 -135 132 -3 10 -10
18 -15 18 -5 0 -9 5 -9 10 0 6 -11 23 -24 37 -13 14 -32 43 -42 64 -9 22 -21
39 -26 39 -5 0 -7 4 -3 9 3 5 -2 17 -11 25 -8 9 -13 16 -10 16 4 0 0 16 -9 36
-8 19 -15 52 -17 72 -1 20 -7 40 -12 45 -7 4 -6 10 4 17 8 5 10 10 4 10 -15 0
-16 60 -1 60 8 0 7 3 -2 9 -8 5 -11 16 -8 24 3 8 0 20 -6 26 -8 8 -8 11 1 11
8 0 9 7 1 27 -7 20 -6 28 3 35 10 6 10 8 -1 8 -10 0 -11 3 -3 13 7 8 7 18 2
27 -13 20 -12 33 1 24 8 -4 8 -1 2 12 -12 24 -7 78 7 82 5 2 8 8 5 13 -4 5 6
32 20 60 14 29 23 54 21 56 -3 3 6 15 20 28 13 12 24 25 24 29 0 3 8 15 18 26
9 11 16 23 14 26 -1 2 9 15 23 28 14 13 25 28 25 34 0 5 7 13 16 16 8 3 12 10
9 16 -3 5 0 10 8 10 8 0 18 7 21 16 3 8 10 13 14 10 4 -3 16 6 26 20 11 13 27
24 37 24 9 0 19 4 21 8 6 16 227 117 244 112 4 -1 10 3 13 9 4 6 30 13 58 15
28 2 59 8 69 14 11 6 27 7 41 1 13 -5 23 -5 23 1 0 4 8 10 18 12 31 7 147 3
160 -5z m-794 -1635 c3 -5 -1 -9 -9 -9 -8 0 -12 4 -9 9 3 4 7 8 9 8 2 0 6 -4
9 -8z m-17 -54 c-3 -7 -5 -2 -5 12 0 14 2 19 5 13 2 -7 2 -19 0 -25z m395
-570 c2 -7 4 -24 4 -38 -1 -14 4 -28 9 -32 6 -5 4 -8 -4 -8 -23 0 -40 32 -31
56 5 12 6 25 3 28 -4 3 -2 6 4 6 6 0 13 -6 15 -12z"/>
<path d="M2843 4405 c0 -8 4 -12 9 -9 5 3 6 10 3 15 -9 13 -12 11 -12 -6z"/>
<path d="M2840 4146 c0 -2 7 -7 16 -10 8 -3 12 -2 9 4 -6 10 -25 14 -25 6z"/>
<path d="M2840 4100 c-9 -6 -10 -10 -3 -10 6 0 15 5 18 10 8 12 4 12 -15 0z"/>
<path d="M1673 1069 c1 -16 3 -17 17 -4 9 8 20 12 23 8 4 -3 7 -2 7 4 0 6 -11
11 -24 11 -18 0 -24 -6 -23 -19z"/>
<path d="M2950 360 c0 -5 5 -10 11 -10 5 0 7 5 4 10 -3 6 -8 10 -11 10 -2 0
-4 -4 -4 -10z"/>
<path d="M2274 254 c1 -7 6 -17 10 -21 4 -4 6 -1 4 7 -2 9 3 14 12 12 8 -2 11
0 7 4 -13 14 -35 12 -33 -2z"/>
<path d="M2290 160 c0 -5 5 -10 10 -10 6 0 10 5 10 10 0 6 -4 10 -10 10 -5 0
-10 -4 -10 -10z"/>
</g>
</svg>
